<?xml version="1.0" encoding="UTF-8"?>
<svg version="1.1" xmlns="http://www.w3.org/2000/svg" width="512" height="512">
<path d="M0 0 C168.96 0 337.92 0 512 0 C512 168.96 512 337.92 512 512 C343.04 512 174.08 512 0 512 C0 343.04 0 174.08 0 0 Z " fill="#282828" transform="translate(0,0)"/>
<path d="M0 0 C2.44091797 1.94018555 2.44091797 1.94018555 5.1171875 4.44921875 C5.62192596 4.92155441 6.12666443 5.39389008 6.646698 5.88053894 C14.08738176 12.89606622 21.35540237 20.09500119 28.60351562 27.30834961 C30.29800042 28.99118564 31.99697475 30.66951197 33.70019531 32.34350586 C36.18753146 34.7883417 38.66150335 37.24600859 41.1328125 39.70703125 C41.89417511 40.45088577 42.65553772 41.1947403 43.43997192 41.96113586 C48.51164635 47.05394985 50.73203279 50.62361315 51.3125 57.9375 C51.16039721 63.2408173 49.36263632 67.38961163 45.9375 71.4375 C44 73 44 73 42 73 C41.505 74.485 41.505 74.485 41 76 C35.80439957 78.00100827 29.00599204 77.85298236 23.71484375 76.3515625 C19.14775278 74.29241166 16.25486441 71.43860804 13.2265625 67.48828125 C12.05047642 65.85615393 12.05047642 65.85615393 10 65 C10 124.73 10 184.46 10 246 C11.65 244.35 13.3 242.7 15 241 C15.804375 240.38125 16.60875 239.7625 17.4375 239.125 C20.25183818 236.79115858 22.39767732 234.24196727 24.66796875 231.390625 C25.10753906 230.93171875 25.54710937 230.4728125 26 230 C26.66 230 27.32 230 28 230 C28.25098135 229.42439551 28.5019627 228.84879103 28.76054955 228.25574398 C30.16724394 225.69562357 31.76886524 223.97652387 33.83120728 221.90809631 C34.63015411 221.10206467 35.42910095 220.29603302 36.2522583 219.46557617 C37.13017029 218.5901416 38.00808228 217.71470703 38.91259766 216.81274414 C39.83638214 215.88384872 40.76016663 214.95495331 41.71194458 213.99790955 C44.24469516 211.45177205 46.78381111 208.91207438 49.32452822 206.37388921 C51.44831741 204.25117067 53.56912022 202.12548074 55.689978 199.999834 C60.69770776 194.98100853 65.71074787 189.96753087 70.72705078 184.95727539 C75.89121225 179.79914444 81.04615106 174.63192747 86.1966244 169.4601317 C90.62614171 165.01295638 95.06149015 160.5716555 99.50146902 156.13492483 C102.14984822 153.48835311 104.79598676 150.83963804 107.43648148 148.18519783 C110.38621272 145.22047303 113.34801445 142.26809343 116.31103516 139.31665039 C117.17680176 138.44324005 118.04256836 137.56982971 118.93457031 136.66995239 C125.85058195 129.81340038 131.89522864 124.39385622 141.875 123.75 C148.57294124 123.86163235 153.32180758 127.42576741 158 132 C161.0189107 137.23277855 162.01675443 142.07890065 161 148 C159.12143758 153.48388423 155.96691392 157.23117307 151.61653137 160.97650146 C145.15251898 166.68793008 139.09755768 172.76977172 133.01049805 178.87597656 C131.73657884 180.15017847 130.46243814 181.42415899 129.18809509 182.69793701 C125.75646713 186.12928009 122.32791442 189.56368066 118.89993644 192.99866962 C115.30064435 196.60425342 111.69848138 200.20696682 108.09663391 203.80999756 C101.28333896 210.62639124 94.47259439 217.4453272 87.66278154 224.26519942 C79.92529832 232.01386523 72.1849728 239.75968912 64.44440401 247.50527239 C51.21439519 260.7439502 37.98649471 273.98473152 24.76098633 287.22790527 C23.92371111 288.06628988 23.92371111 288.06628988 23.06952125 288.92161155 C22.04676006 289.94573925 21.02401489 290.96988295 20.0012905 291.9940474 C17.77233646 294.22601174 15.54241955 296.45698741 13.3105135 298.68600082 C11.71800846 300.28090834 10.13590717 301.88624905 8.5625 303.5 C2.88443255 309.039578 -1.62920094 312.96274372 -9.8125 313.4375 C-15.27430014 313.2830741 -19.11439992 311.90286941 -23 308 C-26.5204364 302.50041279 -29.12167988 296.87960684 -29.13142776 290.29874992 C-29.13526891 289.3264597 -29.13911005 288.35416948 -29.1430676 287.35241592 C-29.14220112 286.28171895 -29.14133463 285.21102197 -29.14044189 284.10787964 C-29.14341302 282.97235535 -29.14638414 281.83683106 -29.1494453 280.66689694 C-29.15815389 276.84156326 -29.15964238 273.01626079 -29.16113281 269.19091797 C-29.16522061 266.45634272 -29.17076324 263.72177078 -29.17617798 260.98719788 C-29.18976625 253.5427954 -29.1957871 246.09839831 -29.20018864 238.6539855 C-29.20295085 234.00500086 -29.20718823 229.3560183 -29.21169281 224.70703506 C-29.22388731 211.83424701 -29.23418549 198.96146062 -29.2375679 186.08866692 C-29.23778747 185.2645728 -29.23800703 184.44047868 -29.23823325 183.59141202 C-29.23845153 182.76534496 -29.23866981 181.93927791 -29.2388947 181.08817852 C-29.23933817 179.41425443 -29.23978473 177.74033034 -29.24023438 176.06640625 C-29.2404558 175.23608203 -29.24067723 174.4057578 -29.24090537 173.55027224 C-29.24485144 160.10290969 -29.2622988 146.6556014 -29.2855939 133.20825981 C-29.3093201 119.40049769 -29.32177037 105.59276277 -29.32293582 91.78497994 C-29.32385199 84.03313565 -29.32958958 76.28136201 -29.34775543 68.5295372 C-29.36317372 61.92686586 -29.3682668 55.32428698 -29.36001733 48.72160105 C-29.35611654 45.35436047 -29.35865155 41.98745702 -29.37107468 38.62021446 C-29.38376984 34.96465709 -29.37792991 31.30957628 -29.36749268 27.65402222 C-29.37554908 26.59670957 -29.38360548 25.53939693 -29.39190602 24.45004451 C-29.34413028 17.28759732 -28.536213 10.67842999 -24.38671875 4.66015625 C-17.32996085 -1.97481842 -9.14312216 -4.48483065 0 0 Z " fill="#F6941C" transform="translate(151,114)"/>
<path d="M0 0 C5.32870609 3.10088546 9.77496702 7.12177607 11.76171875 13.08203125 C11.85647912 14.68340417 11.89439978 16.28843461 11.89873314 17.89260292 C11.90380768 18.88927691 11.90888222 19.8859509 11.91411054 20.91282713 C11.9146083 22.01076074 11.91510606 23.10869436 11.9156189 24.23989868 C11.92219228 25.98606242 11.92219228 25.98606242 11.92889845 27.76750219 C11.93996742 31.00420294 11.94651226 34.24087641 11.95107961 37.47759175 C11.95703599 40.96650625 11.9686458 44.45540294 11.97937012 47.94430542 C12.00389408 56.37327146 12.01852167 64.8022434 12.03143018 73.23123413 C12.03514225 75.61211454 12.03911547 77.99299436 12.04318285 80.37387419 C12.06842052 95.15971833 12.09047303 109.9455634 12.102911 124.73142433 C12.10584068 128.15639881 12.10880235 131.58137325 12.11181641 135.00634766 C12.11256246 135.85760618 12.11330851 136.70886471 12.11407717 137.58591895 C12.12672816 151.37281218 12.15994767 165.15957638 12.20161824 178.9464093 C12.24405311 193.10221394 12.26760786 207.25795255 12.27283156 221.41382062 C12.27624402 229.3613427 12.28797953 237.30866315 12.3209343 245.25612259 C12.34895743 252.02535112 12.35992432 258.7943367 12.34873883 265.56361873 C12.34355777 269.01600303 12.34640181 272.46787874 12.37120438 275.9201889 C12.39385422 279.66797089 12.38561805 283.41447362 12.36972046 287.16226196 C12.38360255 288.24681124 12.39748463 289.33136052 12.41178739 290.44877493 C12.33065362 298.21777185 10.49986799 303.97635802 5.20720899 309.7893759 C0.81345906 313.90854153 -4.31095736 313.60594312 -10.0546875 313.55078125 C-15.77691094 312.70824528 -19.79966553 309.89041442 -23.9765625 306.0234375 C-24.83717285 305.22695801 -25.6977832 304.43047852 -26.58447266 303.60986328 C-30.92692906 299.47354372 -35.19500041 295.26982377 -39.42578125 291.01953125 C-40.27591797 290.17326172 -41.12605469 289.32699219 -42.00195312 288.45507812 C-46.42858807 284.02160668 -50.70409228 279.53196935 -54.74072266 274.73901367 C-56.20505974 273.11878938 -57.71147037 271.80474824 -59.42578125 270.45703125 C-63.63670171 266.90114286 -65.93159347 263.80269232 -66.91015625 258.3125 C-66.96925003 256.96588815 -66.99437741 255.6174253 -66.98828125 254.26953125 C-66.98562256 253.21548096 -66.98562256 253.21548096 -66.98291016 252.14013672 C-66.70592788 246.04512075 -64.79376529 242.71185458 -60.3828125 238.65625 C-55.75986079 235.26271714 -51.23471134 234.56097241 -45.60546875 234.703125 C-38.0689837 235.90946007 -33.47551772 240.84479478 -28.23828125 246.08203125 C-27.74328125 157.47703125 -27.74328125 157.47703125 -27.23828125 67.08203125 C-33.80899936 72.81331746 -33.80899936 72.81331746 -40.0836792 78.79371643 C-40.95555374 79.66132599 -41.82742828 80.52893555 -42.72572327 81.4228363 C-43.65380295 82.35136917 -44.58188263 83.27990204 -45.53808594 84.23657227 C-46.54734471 85.24283231 -47.5568059 86.24888936 -48.56645203 87.25476074 C-51.28551747 89.96506049 -54.00139671 92.67853064 -56.71640301 95.39289594 C-58.41580759 97.09158646 -60.11592361 98.78956161 -61.81629181 100.48728752 C-67.75618936 106.4179605 -73.69352575 112.35118347 -79.62841797 118.28686523 C-85.14979008 123.80883929 -90.67672993 129.32519695 -96.20627856 134.83898216 C-100.96672794 139.58634614 -105.72330391 144.33756761 -110.47689557 149.09179825 C-113.31051659 151.92567369 -116.14565398 154.75798933 -118.98470306 157.58642769 C-121.65186775 160.24389304 -124.31416446 162.90614151 -126.97284889 165.57209015 C-128.40954303 167.01032328 -129.85116893 168.44362467 -131.29295349 169.87675476 C-135.46824466 174.07239605 -139.14961984 178.03355602 -142.23828125 183.08203125 C-144.52734375 185.1640625 -144.52734375 185.1640625 -146.86328125 186.89453125 C-147.63929688 187.47847656 -148.4153125 188.06242188 -149.21484375 188.6640625 C-152.58492705 191.02572319 -154.64033538 191.24257108 -158.73828125 191.26953125 C-159.71796875 191.28371094 -160.69765625 191.29789063 -161.70703125 191.3125 C-164.23828125 191.08203125 -164.23828125 191.08203125 -166.23828125 189.08203125 C-167.02203125 188.81390625 -167.80578125 188.54578125 -168.61328125 188.26953125 C-173.66897222 185.98243296 -176.3020834 181.11614565 -178.23828125 176.08203125 C-179.01397934 170.2538132 -178.29579444 166.17788657 -175.23828125 161.08203125 C-174.84640625 160.11265625 -174.45453125 159.14328125 -174.05078125 158.14453125 C-172.40174821 155.35823405 -171.43984486 154.26459102 -169.03344727 152.29077148 C-162.23625871 146.46280269 -156.02479501 140.01209378 -149.703125 133.6796875 C-148.29657821 132.27381559 -146.8898831 130.86809205 -145.48304749 129.46250916 C-142.54558361 126.52651357 -139.60992043 123.58873256 -136.67553711 120.6496582 C-132.93126065 116.89968502 -129.18251191 113.15421994 -125.43239498 109.41008854 C-122.52994685 106.51126953 -119.6299039 103.6100537 -116.73056221 100.70812798 C-115.3499223 99.3268253 -113.96855113 97.9462531 -112.58640862 96.56645393 C-103.29166297 87.34194151 -103.29166297 87.34194151 -94.53671265 77.61094666 C-92.44651091 75.14971409 -90.20011783 72.87405318 -87.92578125 70.58203125 C-87.08402344 69.72609375 -86.24226563 68.87015625 -85.375 67.98828125 C-83.23828125 66.08203125 -83.23828125 66.08203125 -81.23828125 66.08203125 C-81.01140625 65.52515625 -80.78453125 64.96828125 -80.55078125 64.39453125 C-78.8710929 61.43508035 -76.6969484 59.42076341 -74.23828125 57.08203125 C-73.68140625 56.48390625 -73.12453125 55.88578125 -72.55078125 55.26953125 C-71.23828125 54.08203125 -71.23828125 54.08203125 -69.23828125 54.08203125 C-68.99933136 53.51907349 -68.76038147 52.95611572 -68.51419067 52.37609863 C-66.95908616 49.58004237 -65.07660042 47.65112195 -62.82373047 45.37695312 C-61.90872772 44.44919067 -60.99372498 43.52142822 -60.05099487 42.56555176 C-59.0487252 41.56022363 -58.04603925 40.55531035 -57.04296875 39.55078125 C-56.01109412 38.51247469 -54.97936831 37.47402022 -53.94778442 36.4354248 C-51.78417595 34.25984968 -49.61648142 32.08844016 -47.44628906 29.91943359 C-44.67900261 27.15234985 -41.92570336 24.37179516 -39.17582512 21.58742523 C-37.04816528 19.43741724 -34.91136383 17.29667331 -32.77197647 15.15834045 C-31.75377062 14.13778876 -30.73877271 13.11402522 -29.72719955 12.0868988 C-21.62793318 3.87488274 -12.33601094 -5.0592715 0 0 Z " fill="#4BB752" transform="translate(367.23828125,70.91796875)"/>
<path d="M0 0 C0.33 0 0.66 0 1 0 C1.33 88.77 1.66 177.54 2 269 C3.32 267.02 4.64 265.04 6 263 C7.97956942 261.30911778 9.97945196 259.64169528 12 258 C13.35827971 256.35360035 14.69254251 254.68704193 16 253 C20.36363636 248.30909091 20.36363636 248.30909091 23.1875 246.9375 C25.13524486 246.16938812 25.13524486 246.16938812 25.75 244.3125 C27.53163961 241.01646672 30.14753948 238.643677 32.8125 236.0625 C33.33392578 235.55009766 33.85535156 235.03769531 34.39257812 234.50976562 C35.42756459 233.49286881 36.46472609 232.47818054 37.50415039 231.46582031 C38.9279972 230.07055733 40.33177808 228.65490414 41.734375 227.23828125 C44 225 44 225 46.4375 223.125 C49.25183818 220.79115858 51.39767732 218.24196727 53.66796875 215.390625 C54.10753906 214.93171875 54.54710937 214.4728125 55 214 C55.66 214 56.32 214 57 214 C57.25098135 213.42439551 57.5019627 212.84879103 57.76054955 212.25574398 C59.16724394 209.69562357 60.76886524 207.97652387 62.83120728 205.90809631 C63.63015411 205.10206467 64.42910095 204.29603302 65.2522583 203.46557617 C66.13017029 202.5901416 67.00808228 201.71470703 67.91259766 200.81274414 C68.83638214 199.88384872 69.76016663 198.95495331 70.71194458 197.99790955 C73.24469516 195.45177205 75.78381111 192.91207438 78.32452822 190.37388921 C80.44831741 188.25117067 82.56912022 186.12548074 84.689978 183.999834 C89.69770776 178.98100853 94.71074787 173.96753087 99.72705078 168.95727539 C104.89121225 163.79914444 110.04615106 158.63192747 115.1966244 153.4601317 C119.62614171 149.01295638 124.06149015 144.5716555 128.50146902 140.13492483 C131.14984822 137.48835311 133.79598676 134.83963804 136.43648148 132.18519783 C139.38621272 129.22047303 142.34801445 126.26809343 145.31103516 123.31665039 C146.17680176 122.44324005 147.04256836 121.56982971 147.93457031 120.66995239 C154.85058195 113.81340038 160.89522864 108.39385622 170.875 107.75 C177.57294124 107.86163235 182.32180758 111.42576741 187 116 C190.0189107 121.23277855 191.01675443 126.07890065 190 132 C188.12143758 137.48388423 184.96691392 141.23117307 180.61653137 144.97650146 C174.15251898 150.68793008 168.09755768 156.76977172 162.01049805 162.87597656 C160.73657884 164.15017847 159.46243814 165.42415899 158.18809509 166.69793701 C154.75646713 170.12928009 151.32791442 173.56368066 147.89993644 176.99866962 C144.30064435 180.60425342 140.69848138 184.20696682 137.09663391 187.80999756 C130.28333896 194.62639124 123.47259439 201.4453272 116.66278154 208.26519942 C108.92529832 216.01386523 101.1849728 223.75968912 93.44440401 231.50527239 C80.21439519 244.7439502 66.98649471 257.98473152 53.76098633 271.22790527 C52.92371111 272.06628988 52.92371111 272.06628988 52.06952125 272.92161155 C51.04676006 273.94573925 50.02401489 274.96988295 49.0012905 275.9940474 C46.77233646 278.22601174 44.54241955 280.45698741 42.3105135 282.68600082 C40.71800846 284.28090834 39.13590717 285.88624905 37.5625 287.5 C31.88443255 293.039578 27.37079906 296.96274372 19.1875 297.4375 C13.72569986 297.2830741 9.88560008 295.90286941 6 292 C2.4722807 286.48903553 -0.12600622 280.86787056 -0.12304783 274.27361012 C-0.1260344 272.80684935 -0.1260344 272.80684935 -0.12908131 271.31045705 C-0.12616847 270.233621 -0.12325563 269.15678495 -0.12025452 268.0473175 C-0.12110894 266.90544312 -0.12196337 265.76356874 -0.12284368 264.5870921 C-0.12420869 261.41281594 -0.12107319 258.23858036 -0.11606562 255.064309 C-0.11175519 251.64306187 -0.11320797 248.22181671 -0.1139679 244.80056763 C-0.11449275 238.87142295 -0.11134993 232.94228927 -0.10573006 227.01314735 C-0.0976099 218.44055864 -0.09499931 209.86797526 -0.09374207 201.29538312 C-0.09155236 187.38759289 -0.08489447 173.47980853 -0.07543945 159.57202148 C-0.06626324 146.06030303 -0.05918343 132.54858617 -0.05493164 119.03686523 C-0.05466892 118.20428164 -0.05440619 117.37169804 -0.05413551 116.51388464 C-0.05283049 112.33714067 -0.05156678 108.1603967 -0.05032361 103.98365271 C-0.03995353 69.32243096 -0.02233741 34.66121602 0 0 Z " fill="#DB2025" transform="translate(122,130)"/>
<path d="M0 0 C5.32870609 3.10088546 9.77496702 7.12177607 11.76171875 13.08203125 C12.71214205 20.60395283 11.35539916 26.03328453 6.76171875 32.08203125 C4.86491423 33.98380123 2.92797004 35.45734279 0.76171875 37.08203125 C-2.42368603 40.09525199 -5.33142663 43.30453943 -8.23828125 46.58203125 C-12.10858399 50.90267275 -16.09766193 55.08375003 -20.17578125 59.20703125 C-20.74361328 59.78775391 -21.31144531 60.36847656 -21.89648438 60.96679688 C-23.30479546 62.37850557 -24.767391 63.73564964 -26.23828125 65.08203125 C-26.89828125 65.08203125 -27.55828125 65.08203125 -28.23828125 65.08203125 C-28.47931139 65.64837847 -28.72034153 66.21472569 -28.96867561 66.79823494 C-30.49666303 69.54681444 -32.32068993 71.40404423 -34.55197144 73.62277222 C-35.45766876 74.52832855 -36.36336609 75.43388489 -37.29650879 76.36688232 C-38.30289422 77.36300021 -39.30936688 78.35902997 -40.31591797 79.35498047 C-41.37419265 80.40941594 -42.43201224 81.46430834 -43.4894104 82.5196228 C-45.76630862 84.79020101 -48.04627691 87.0576348 -50.32863998 89.32271957 C-53.93950696 92.90653127 -57.54272422 96.49796799 -61.14480591 100.09060669 C-69.44502564 108.3667373 -77.75520337 116.63284563 -86.06550598 124.89884949 C-93.67702281 132.46998439 -101.28640853 140.04322853 -108.88770878 147.62462246 C-112.46645663 151.19342101 -116.05002151 154.75728853 -119.63737845 158.31743217 C-121.87176684 160.53686622 -124.10197197 162.76046802 -126.33108139 164.98520279 C-127.36289198 166.01327974 -128.39642491 167.03963155 -129.43183136 168.06408691 C-130.84941256 169.46714928 -132.26017421 170.87709164 -133.67062378 172.287323 C-134.46076811 173.0730261 -135.25091244 173.85872921 -136.06500053 174.6682415 C-138.44055226 177.30668686 -140.29277531 180.1176103 -142.23828125 183.08203125 C-144.52734375 185.1640625 -144.52734375 185.1640625 -146.86328125 186.89453125 C-147.63929688 187.47847656 -148.4153125 188.06242188 -149.21484375 188.6640625 C-152.58492705 191.02572319 -154.64033538 191.24257108 -158.73828125 191.26953125 C-159.71796875 191.28371094 -160.69765625 191.29789063 -161.70703125 191.3125 C-164.23828125 191.08203125 -164.23828125 191.08203125 -166.23828125 189.08203125 C-167.02203125 188.81390625 -167.80578125 188.54578125 -168.61328125 188.26953125 C-173.66897222 185.98243296 -176.3020834 181.11614565 -178.23828125 176.08203125 C-179.01397934 170.2538132 -178.29579444 166.17788657 -175.23828125 161.08203125 C-174.84640625 160.11265625 -174.45453125 159.14328125 -174.05078125 158.14453125 C-172.40174821 155.35823405 -171.43984486 154.26459102 -169.03344727 152.29077148 C-162.23625871 146.46280269 -156.02479501 140.01209378 -149.703125 133.6796875 C-148.29657821 132.27381559 -146.8898831 130.86809205 -145.48304749 129.46250916 C-142.54558361 126.52651357 -139.60992043 123.58873256 -136.67553711 120.6496582 C-132.93126065 116.89968502 -129.18251191 113.15421994 -125.43239498 109.41008854 C-122.52994685 106.51126953 -119.6299039 103.6100537 -116.73056221 100.70812798 C-115.3499223 99.3268253 -113.96855113 97.9462531 -112.58640862 96.56645393 C-103.29166297 87.34194151 -103.29166297 87.34194151 -94.53671265 77.61094666 C-92.44651091 75.14971409 -90.20011783 72.87405318 -87.92578125 70.58203125 C-87.08402344 69.72609375 -86.24226563 68.87015625 -85.375 67.98828125 C-83.23828125 66.08203125 -83.23828125 66.08203125 -81.23828125 66.08203125 C-81.01140625 65.52515625 -80.78453125 64.96828125 -80.55078125 64.39453125 C-78.8710929 61.43508035 -76.6969484 59.42076341 -74.23828125 57.08203125 C-73.68140625 56.48390625 -73.12453125 55.88578125 -72.55078125 55.26953125 C-71.23828125 54.08203125 -71.23828125 54.08203125 -69.23828125 54.08203125 C-68.99933136 53.51907349 -68.76038147 52.95611572 -68.51419067 52.37609863 C-66.95908616 49.58004237 -65.07660042 47.65112195 -62.82373047 45.37695312 C-61.90872772 44.44919067 -60.99372498 43.52142822 -60.05099487 42.56555176 C-59.0487252 41.56022363 -58.04603925 40.55531035 -57.04296875 39.55078125 C-56.01109412 38.51247469 -54.97936831 37.47402022 -53.94778442 36.4354248 C-51.78417595 34.25984968 -49.61648142 32.08844016 -47.44628906 29.91943359 C-44.67900261 27.15234985 -41.92570336 24.37179516 -39.17582512 21.58742523 C-37.04816528 19.43741724 -34.91136383 17.29667331 -32.77197647 15.15834045 C-31.75377062 14.13778876 -30.73877271 13.11402522 -29.72719955 12.0868988 C-21.62793318 3.87488274 -12.33601094 -5.0592715 0 0 Z " fill="#26A48D" transform="translate(367.23828125,70.91796875)"/>
<path d="M0 0 C0.66 0 1.32 0 2 0 C1.99907821 1.19013514 1.99815641 2.38027027 1.99720669 3.60647011 C1.97554904 31.85760956 1.95905958 60.1087488 1.94893467 88.35989473 C1.94768396 91.8370978 1.94638964 95.31430086 1.94506836 98.79150391 C1.94467489 99.82987705 1.94467489 99.82987705 1.94427348 100.88922743 C1.93992213 112.09813364 1.93203751 123.30703472 1.9228472 134.51593788 C1.91349581 146.01723302 1.90801609 157.51852456 1.90591151 169.01982343 C1.90460656 175.47994259 1.90153427 181.94005012 1.89426994 188.40016556 C1.88748981 194.47885439 1.88538713 200.55752677 1.88689232 206.63621902 C1.88661689 208.86870411 1.88462358 211.10118975 1.88079453 213.33367157 C1.87582621 216.37941989 1.87701337 219.42510598 1.87974548 222.47085571 C1.87537622 223.79869015 1.87537622 223.79869015 1.87091869 225.15334952 C1.88159571 229.55111362 2.11310699 233.66997015 3 238 C-2.44305294 233.45934794 -7.50260354 228.64921611 -12.5 223.625 C-13.22058594 222.90828125 -13.94117188 222.1915625 -14.68359375 221.453125 C-18.78739375 217.34190403 -22.70623621 213.14029513 -26.45629883 208.703125 C-27.93890986 207.06739915 -29.45428357 205.73637055 -31.1875 204.375 C-35.39842046 200.81911161 -37.69331222 197.72066107 -38.671875 192.23046875 C-38.73096878 190.8838569 -38.75609616 189.53539405 -38.75 188.1875 C-38.74734131 187.13344971 -38.74734131 187.13344971 -38.74462891 186.05810547 C-38.46764663 179.9630895 -36.55548404 176.62982333 -32.14453125 172.57421875 C-27.52157954 169.18068589 -22.99643009 168.47894116 -17.3671875 168.62109375 C-9.83070245 169.82742882 -5.23723647 174.76276353 0 180 C0 120.6 0 61.2 0 0 Z " fill="#2A9343" transform="translate(339,137)"/>
<path d="M0 0 C7.8841624 6.75785349 7.8841624 6.75785349 10.70043945 9.5234375 C11.33411942 10.14428223 11.96779938 10.76512695 12.62068176 11.40478516 C13.27823959 12.05495605 13.93579742 12.70512695 14.61328125 13.375 C15.65671944 14.40633057 15.65671944 14.40633057 16.72123718 15.45849609 C18.17897905 16.90250066 19.63524385 18.34799777 21.09008789 19.79492188 C22.57621366 21.26945642 24.06681387 22.73949451 25.56176758 24.20507812 C27.73462607 26.33534088 29.89399575 28.47847989 32.05078125 30.625 C32.71846024 31.2751709 33.38613922 31.9253418 34.0740509 32.59521484 C38.86181445 37.40564628 40.76507642 41.03996286 41.3125 47.9375 C41.16039721 53.2408173 39.36263632 57.38961163 35.9375 61.4375 C34 63 34 63 32 63 C31.67 63.99 31.34 64.98 31 66 C25.80439957 68.00100827 19.00599204 67.85298236 13.71484375 66.3515625 C9.14775278 64.29241166 6.25486441 61.43860804 3.2265625 57.48828125 C2.05047642 55.85615393 2.05047642 55.85615393 0 55 C0 36.85 0 18.7 0 0 Z " fill="#F1821E" transform="translate(161,124)"/>
<path d="M0 0 C4.88031922 3.44493121 7.27436526 6.2478842 9 12 C9.99120272 18.01329649 8.9321335 22.53001539 5.77734375 27.71484375 C2.40395728 32.05205493 -1.76885956 35.52471378 -6 39 C-6.33 38.01 -6.66 37.02 -7 36 C-8.175625 36.061875 -9.35125 36.12375 -10.5625 36.1875 C-16.53591431 36.15583879 -20.55738076 34.44261924 -24.8125 30.1875 C-29.26354474 23.70169194 -29.17886029 19.21139706 -30 11 C-53.1 34.1 -76.2 57.2 -100 81 C-100.99 80.67 -101.98 80.34 -103 80 C-93.10783924 70.03760004 -83.20687961 60.08401836 -73.2958374 50.14040089 C-68.69369597 45.52262274 -64.09437917 40.9021036 -59.50146484 36.27514648 C-55.06659623 31.80761406 -50.62437879 27.34751077 -46.17703247 22.89240074 C-44.4839964 21.19383384 -42.79359719 19.49263433 -41.10592651 17.78873634 C-38.73645973 15.3974028 -36.35767723 13.01571429 -33.9765625 10.63598633 C-32.93969551 9.5829406 -32.93969551 9.5829406 -31.88188171 8.50862122 C-23.03898347 -0.27892908 -12.09924463 -7.62778466 0 0 Z " fill="#C62026" transform="translate(303,241)"/>
<path d="M0 0 C0 59.4 0 118.8 0 180 C-1.32 179.01 -2.64 178.02 -4 177 C-3.67 176.34 -3.34 175.68 -3 175 C-2.67 175.33 -2.34 175.66 -2 176 C-2 119.24 -2 62.48 -2 4 C-38.96 40.96 -75.92 77.92 -114 116 C-114 112.0650055 -112.79845992 111.32245125 -110.15281677 108.47439575 C-108.91251363 107.1376499 -108.91251363 107.1376499 -107.64715385 105.77389908 C-103.34023066 101.26076122 -98.96717424 96.81975499 -94.55493164 92.40966797 C-93.54188769 91.39362296 -92.52904583 90.37737644 -91.51638794 89.36094666 C-88.79819551 86.6340195 -86.07686285 83.91024834 -83.35462117 81.1873641 C-81.65226631 79.48429425 -79.95062713 77.78051262 -78.24923515 76.07648087 C-72.31018874 70.1282255 -66.3686086 64.18251499 -60.42456055 58.23925781 C-54.88542314 52.70072436 -49.35192428 47.15660054 -43.82095629 41.60990989 C-39.06170545 36.8376128 -34.29863712 32.06914906 -29.53253835 27.30369103 C-26.68987718 24.46128512 -23.84879964 21.61733877 -21.01155281 18.76952744 C-18.35239974 16.10073921 -15.68855001 13.43673266 -13.02092361 10.77641487 C-12.04118109 9.79772298 -11.06315919 8.81730529 -10.08695412 7.83508492 C-8.75931493 6.49979241 -7.4249612 5.17118576 -6.09022522 3.84298706 C-5.34420075 3.09641783 -4.59817629 2.34984859 -3.82954502 1.58065605 C-2 0 -2 0 0 0 Z " fill="#051812" transform="translate(340,138)"/>
<path d="M0 0 C2.42875656 2.42875656 2.68129011 4.34602866 3.04296875 7.69921875 C2.95479395 12.42057874 1.09070469 16.81859062 -1 21 C-1.66 21 -2.32 21 -3 21 C-3.20878816 21.53368887 -3.41757631 22.06737774 -3.63269138 22.617239 C-5.54235786 25.94514812 -8.17261691 28.44417811 -10.87693787 31.12417603 C-11.48497932 31.73463189 -12.09302077 32.34508776 -12.71948773 32.9740423 C-14.76065182 35.02084764 -16.80889395 37.06041899 -18.85717773 39.10009766 C-20.3209894 40.5649821 -21.78436805 42.03029935 -23.24734497 43.49601746 C-27.22413154 47.4776561 -31.20714811 51.45300878 -35.19142795 55.42714739 C-39.35600164 59.58294683 -43.51531178 63.74400805 -47.67530823 67.90438843 C-54.66205109 74.89019438 -61.65265851 81.87211407 -68.64575195 88.8515625 C-76.73680182 96.92688352 -84.82260995 105.00742249 -92.90543216 113.09097826 C-100.67389499 120.86005096 -108.44520962 128.62626408 -116.2181263 136.39088058 C-119.52945244 139.69867153 -122.8399238 143.0073145 -126.14974785 146.31660843 C-130.04529297 150.21115067 -133.94337273 154.10313823 -137.84344864 157.99314308 C-139.27662078 159.4233889 -140.70894281 160.85448715 -142.14036369 162.28648567 C-144.08996661 164.23657767 -146.04260496 166.18357773 -147.99607849 168.12979126 C-148.56572702 168.70098839 -149.13537556 169.27218553 -149.72228616 169.86069167 C-152.05821171 172.18223661 -154.24961652 174.16641101 -157 176 C-157.99 175.67 -158.98 175.34 -160 175 C-154.25 170 -154.25 170 -152 170 C-151.731875 169.401875 -151.46375 168.80375 -151.1875 168.1875 C-150.00082594 166.00152146 -148.90400887 164.58667406 -147 163 C-146.34 163 -145.68 163 -145 163 C-144.78089399 162.45585449 -144.56178799 161.91170898 -144.3360424 161.35107422 C-142.55916831 158.22425514 -140.159531 155.89064177 -137.62332153 153.3828125 C-137.06907183 152.82685394 -136.51482212 152.27089539 -135.94377697 151.6980896 C-134.08458916 149.83560656 -132.21834129 147.98036374 -130.35205078 146.125 C-129.01793186 144.79144521 -127.68425316 143.4574499 -126.35098267 142.12304688 C-122.72731415 138.49880369 -119.0975039 134.88076821 -115.46658182 131.26379395 C-111.66920713 127.47891747 -107.87749116 123.68838078 -104.08517456 119.8984375 C-96.89748047 112.71696458 -89.7047041 105.5406043 -82.51009643 98.36605835 C-74.33655379 90.21481856 -66.16864117 82.05794737 -58.00122094 73.90057373 C-44.04059402 59.95731921 -30.07571812 46.01833203 -16.10620117 32.08398438 C-15.51663757 31.49589996 -14.92707397 30.90781555 -14.31964481 30.3019104 C-13.23530711 29.22031799 -12.15094271 28.13875235 -11.06654465 27.05722046 C-9.71084395 25.70499991 -8.35541126 24.35251067 -7 23 C-6.25996168 22.27441895 -5.51992336 21.54883789 -4.75745964 20.80126953 C-0.34779364 16.28167954 0.18083614 12.26241581 0.1875 6.125 C0.13953215 4.08294023 0.08176057 2.04098609 0 0 Z " fill="#290506" transform="translate(311,249)"/>
<path d="M0 0 C0 3.29223784 -0.50518132 5.08510357 -2 8 C-3.32405422 8.68491069 -4.65848969 9.34994438 -6 10 C-7.58772851 11.29759658 -7.58772851 11.29759658 -9.06256104 12.822052 C-9.64022217 13.39696381 -10.2178833 13.97187561 -10.81304932 14.56420898 C-11.43451843 15.19286865 -12.05598755 15.82152832 -12.69628906 16.46923828 C-13.36011597 17.13277313 -14.02394287 17.79630798 -14.70788574 18.47994995 C-16.89857333 20.6720297 -19.08209364 22.87110625 -21.265625 25.0703125 C-22.78404837 26.59246639 -24.30291421 28.11417902 -25.82220459 29.63546753 C-29.8181963 33.63909255 -33.80814529 37.64868759 -37.796875 41.6595459 C-41.86877055 45.75190629 -45.94633926 49.83860529 -50.0234375 53.92578125 C-58.02119471 61.94498305 -66.01258103 69.97050181 -74 78 C-74.99 77.67 -75.98 77.34 -77 77 C-51.59 51.59 -26.18 26.18 0 0 Z " fill="#B4181E" transform="translate(277,244)"/>
<path d="M0 0 C1.98 0.99 1.98 0.99 4 2 C3.01 2.495 3.01 2.495 2 3 C1.67 60.75 1.34 118.5 1 178 C1.99 178.33 2.98 178.66 4 179 C2.02 179.99 2.02 179.99 0 181 C0 121.27 0 61.54 0 0 Z " fill="#533109" transform="translate(161,179)"/>
<path d="M0 0 C0.495 1.485 0.495 1.485 1 3 C-3.35674445 7.38145332 -7.71675548 11.75961975 -12.07983398 16.13476562 C-13.56381146 17.62377353 -15.04689039 19.1136775 -16.52905273 20.60449219 C-18.65894053 22.74650188 -20.79203299 24.88527421 -22.92578125 27.0234375 C-23.58838455 27.69120209 -24.25098785 28.35896667 -24.93367004 29.04696655 C-25.55408676 29.6674588 -26.17450348 30.28795105 -26.8137207 30.92724609 C-27.62979546 31.74665176 -27.62979546 31.74665176 -28.46235657 32.58261108 C-30 34 -30 34 -33 36 C-33.99 35.67 -34.98 35.34 -36 35 C-30.25 30 -30.25 30 -28 30 C-27.731875 29.401875 -27.46375 28.80375 -27.1875 28.1875 C-26.00082594 26.00152146 -24.90400887 24.58667406 -23 23 C-22.34 23 -21.68 23 -21 23 C-20.75975098 22.4337793 -20.51950195 21.86755859 -20.27197266 21.28417969 C-18.73804889 18.52959413 -16.89273982 16.66750329 -14.6484375 14.453125 C-13.79765625 13.60878906 -12.946875 12.76445312 -12.0703125 11.89453125 C-10.73613281 10.58548828 -10.73613281 10.58548828 -9.375 9.25 C-8.4778125 8.36183594 -7.580625 7.47367187 -6.65625 6.55859375 C-4.44192996 4.36783031 -2.22307565 2.18187237 0 0 Z " fill="#3B0709" transform="translate(187,389)"/>
<path d="M0 0 C0.69944763 1.76507568 0.69944763 1.76507568 1 4 C-0.2464447 5.84771729 -0.2464447 5.84771729 -2.19116211 7.75878906 C-2.91198471 8.47923401 -3.63280731 9.19967896 -4.37547302 9.94195557 C-5.16809036 10.70876648 -5.9607077 11.47557739 -6.77734375 12.265625 C-7.57781631 13.05902283 -8.37828888 13.85242065 -9.20301819 14.66986084 C-11.76971747 17.2085068 -14.35323126 19.72925331 -16.9375 22.25 C-18.67756532 23.964997 -20.4165129 25.68112888 -22.15429688 27.3984375 C-26.42330124 31.61222701 -30.70625014 35.8114365 -35 40 C-35.99 39.67 -36.98 39.34 -38 39 C-37.57332031 38.64550781 -37.14664062 38.29101562 -36.70703125 37.92578125 C-30.29229468 32.46333547 -24.40728895 26.50122456 -18.49462891 20.50878906 C-17.08214448 19.08292272 -15.65668299 17.66994564 -14.23046875 16.2578125 C-11.95543586 14.03344813 -11.95543586 14.03344813 -10 11.5 C-7.83735946 8.79669932 -5.44632728 6.44632728 -3 4 C-1.97186389 2.68824014 -0.95915568 1.3630107 0 0 Z " fill="#41B260" transform="translate(377,97)"/>
<path d="M0 0 C0 3 0 3 -1.35546875 4.61328125 C-1.96003906 5.17402344 -2.56460938 5.73476563 -3.1875 6.3125 C-5.57696075 8.58587358 -7.76552706 10.85120485 -9.8125 13.4375 C-10.8953125 14.7059375 -10.8953125 14.7059375 -12 16 C-12.66 16 -13.32 16 -14 16 C-14.2371875 16.56203125 -14.474375 17.1240625 -14.71875 17.703125 C-16.28947697 20.51894042 -18.21471464 22.47955416 -20.5 24.75 C-21.2940625 25.54921875 -22.088125 26.3484375 -22.90625 27.171875 C-25 29 -25 29 -27 29 C-27.268125 29.639375 -27.53625 30.27875 -27.8125 30.9375 C-29 33 -29 33 -32 34 C-30.66715173 30.40130966 -28.4738873 28.6305052 -25.51171875 26.28515625 C-23.34523224 24.44336281 -21.73780729 22.24233199 -20 20 C-15.63636364 15.30909091 -15.63636364 15.30909091 -12.8125 13.9375 C-10.85619347 13.15912477 -10.85619347 13.15912477 -10.17578125 11.23828125 C-8.66981594 8.37144364 -6.69331192 6.50207444 -4.375 4.25 C-3.55773437 3.45078125 -2.74046875 2.6515625 -1.8984375 1.828125 C-0.95871094 0.92320312 -0.95871094 0.92320312 0 0 Z " fill="#E64023" transform="translate(158,363)"/>
<path d="M0 0 C0.495 0.99 0.495 0.99 1 2 C-0.61594832 4.04119788 -2.2856382 6.04072937 -4 8 C-4.66 8 -5.32 8 -6 8 C-6.31300049 8.80195801 -6.31300049 8.80195801 -6.63232422 9.62011719 C-8.53935575 12.93852906 -11.17310864 15.41851305 -13.8828125 18.078125 C-14.45707977 18.64956238 -15.03134705 19.22099976 -15.62301636 19.80975342 C-17.4523581 21.62792945 -19.28854193 23.43901492 -21.125 25.25 C-22.36894774 26.48391329 -23.6124427 27.71828322 -24.85546875 28.953125 C-27.89842367 31.97406743 -30.94753254 34.98867092 -34 38 C-34.66 37.67 -35.32 37.34 -36 37 C-34.82812134 35.83597656 -34.82812134 35.83597656 -33.63256836 34.6484375 C-30.70205392 31.73618447 -27.7749825 28.82049089 -24.84887695 25.90380859 C-23.58807785 24.6480018 -22.32637824 23.39309836 -21.0637207 22.13916016 C-11.87533679 13.05480112 -11.87533679 13.05480112 -3.23657227 3.453125 C-2 2 -2 2 0 0 Z " fill="#239A85" transform="translate(276,145)"/>
<path d="M0 0 C0.33 0.99 0.66 1.98 1 3 C-0.375 4.5 -0.375 4.5 -2 6 C-2.66 6 -3.32 6 -4 6 C-4.26119629 6.58644287 -4.52239258 7.17288574 -4.79150391 7.77709961 C-6.07138004 10.13129602 -7.43891315 11.68253777 -9.3359375 13.56640625 C-9.98820312 14.21673828 -10.64046875 14.86707031 -11.3125 15.53710938 C-12.3334375 16.53967773 -12.3334375 16.53967773 -13.375 17.5625 C-14.04789063 18.23474609 -14.72078125 18.90699219 -15.4140625 19.59960938 C-18.48301788 22.64137912 -21.49410078 25.46099595 -25 28 C-25.66 27.67 -26.32 27.34 -27 27 C-25.37660195 25.29115995 -23.70680947 23.62553283 -22 22 C-21.34 22 -20.68 22 -20 22 C-19.75523926 21.42926758 -19.51047852 20.85853516 -19.25830078 20.27050781 C-17.7798053 17.60267546 -16.03873452 15.81283685 -13.8671875 13.671875 C-12.65869141 12.47304688 -12.65869141 12.47304688 -11.42578125 11.25 C-10.16314453 10.0125 -10.16314453 10.0125 -8.875 8.75 C-8.02550781 7.90953125 -7.17601562 7.0690625 -6.30078125 6.203125 C-4.20495077 4.13084317 -2.10459287 2.06337607 0 0 Z " fill="#A5151C" transform="translate(199,322)"/>
<path d="M0 0 C0 3.15987325 -0.38214873 4.36034793 -2 7 C-2.99 7.66 -3.98 8.32 -5 9 C-4.5206753 4.68607774 -3.2542015 2.83430453 0 0 Z " fill="#1F927D" transform="translate(201,221)"/>
<path d="M0 0 C0.33 0.66 0.66 1.32 1 2 C-3.82142857 8.29464286 -3.82142857 8.29464286 -8 9 C-7.04270084 7.87411986 -6.08412105 6.7493285 -5.125 5.625 C-4.59132813 4.99851563 -4.05765625 4.37203125 -3.5078125 3.7265625 C-2.38567993 2.44163349 -1.20628025 1.20628025 0 0 Z " fill="#1D7D6C" transform="translate(276,145)"/>
</svg>
